HIERARCHY
ROOT Hips
{
    OFFSET 0.000000 0.000000 0.000000
    CHANNELS 6 Xposition Yposition Zposition Zrotation Xrotation Yrotation
    JOINT Spine
    {
        OFFSET -0.000000 7.246840 0.000000
        CHANNELS 3 Zrotation Xrotation Yrotation
        JOINT Spine1
        {
            OFFSET -0.000000 20.289354 0.000000
            CHANNELS 3 Zrotation Xrotation Yrotation
            JOINT Neck
            {
                OFFSET -0.000000 20.206032 1.836912
                CHANNELS 3 Zrotation Xrotation Yrotation
                JOINT Head
                {
                    OFFSET -0.000000 12.372654 -1.767522
                    CHANNELS 3 Zrotation Xrotation Yrotation
                    End Site
                    {
                        OFFSET -0.000000 22.094025 0.000000
                    }
                }
            }
            JOINT LeftShoulder
            {
                OFFSET 3.465871 17.201674 -0.568930
                CHANNELS 3 Zrotation Xrotation Yrotation
                JOINT LeftArm
                {
                    OFFSET 14.070313 0.000000 0.000000
                    CHANNELS 3 Zrotation Xrotation Yrotation
                    JOINT LeftForeArm
                    {
                        OFFSET 26.549477 0.000000 0.000000
                        CHANNELS 3 Zrotation Xrotation Yrotation
                        JOINT LeftHand
                        {
                            OFFSET 18.880413 0.000000 0.000000
                            CHANNELS 3 Zrotation Xrotation Yrotation
                            End Site
                            {
                                OFFSET 13.256415 0.000000 0.000000
                            }
                        }
                    }
                }
            }
            JOINT RightShoulder
            {
                OFFSET -3.526370 17.201674 -0.568930
                CHANNELS 3 Zrotation Xrotation Yrotation
                JOINT RightArm
                {
                    OFFSET -14.070313 0.000000 0.000000
                    CHANNELS 3 Zrotation Xrotation Yrotation
                    JOINT RightForeArm
                    {
                        OFFSET -26.549477 0.000000 0.000000
                        CHANNELS 3 Zrotation Xrotation Yrotation
                        JOINT RightHand
                        {
                            OFFSET -18.880413 0.000000 0.000000
                            CHANNELS 3 Zrotation Xrotation Yrotation
                            End Site
                            {
                                OFFSET -13.256415 0.000000 0.000000
                            }
                        }
                    }
                }
            }
        }
    }
    JOINT LeftUpLeg
    {
        OFFSET 8.837609 0.000000 0.000000
        CHANNELS 3 Zrotation Xrotation Yrotation
        JOINT LeftLeg
        {
            OFFSET -0.000000 -41.345005 0.000000
            CHANNELS 3 Zrotation Xrotation Yrotation
            JOINT LeftFoot
            {
                OFFSET -0.000000 -35.500874 0.000000
                CHANNELS 3 Zrotation Xrotation Yrotation
                JOINT LeftToeBase
                {
                    OFFSET -0.000000 -5.744446 13.256415
                    CHANNELS 3 Zrotation Xrotation Yrotation
                    End Site
                    {
                        OFFSET -0.000000 0.000000 3.535044
                    }
                }
            }
        }
    }
    JOINT RightUpLeg
    {
        OFFSET -8.837609 0.000000 0.000000
        CHANNELS 3 Zrotation Xrotation Yrotation
        JOINT RightLeg
        {
            OFFSET -0.000000 -41.345005 0.000000
            CHANNELS 3 Zrotation Xrotation Yrotation
            JOINT RightFoot
            {
                OFFSET -0.000000 -35.500874 0.000000
                CHANNELS 3 Zrotation Xrotation Yrotation
                JOINT RightToeBase
                {
                    OFFSET -0.000000 -5.744446 13.256415
                    CHANNELS 3 Zrotation Xrotation Yrotation
                    End Site
                    {
                        OFFSET -0.000000 0.000000 3.535044
                    }
                }
            }
        }
    }
}
MOTION
Frames:    13
Frame Time:    0.010000
2.245999    82.285011    -16.712862    4.009066    3.324185    -3.075785    -5.492745    -14.006637    -0.781328    0.052556    2.277305    -0.107186    0.988214    27.784105    -1.392146    3.651203    -8.097486    -0.564683    18.369081    1.211305    7.271607    -27.392424    13.409190    -14.886720    6.224431    -10.166994    -11.994727    -35.123531    -10.318327    2.553709    -15.532457    0.010855    13.095420    22.805353    9.139532    8.359253    -2.977288    -10.257919    1.468851    11.677520    -8.909580    12.943221    -0.939469    7.087568    2.395210    -1.112306    -9.498936    -3.875626    2.039600    1.695918    0.604099    -1.222075    -2.097118    1.732788    -9.878707    4.892947    -1.023241    8.366176    -10.256916    1.422374    0.553611    -0.544439    -7.909439    -0.752369    -0.528402    1.356949    
2.261293    82.285484    -16.717758    3.990655    3.316896    -3.063003    -5.480584    -14.001346    -0.780493    0.059222    2.278425    -0.108520    1.006253    27.802382    -1.398878    3.608186    -8.120737    -0.577889    18.345411    1.209721    7.263587    -27.383450    13.494321    -14.891800    6.204273    -10.295417    -12.086082    -35.053734    -10.435570    2.532399    -15.552314    0.017394    13.089602    22.802988    9.102700    8.353289    -3.005967    -10.284307    1.437438    11.734023    -8.927890    12.965012    -0.929920    7.082162    2.395092    -1.129323    -9.470849    -3.873600    2.062348    1.681131    0.578063    -1.238671    -2.102725    1.756379    -9.870418    4.888392    -1.043563    8.359448    -10.235044    1.421921    0.578279    -0.551782    -7.895392    -0.754850    -0.547057    1.361701    
2.276972    82.286255    -16.723928    3.972074    3.311661    -3.053265    -5.457166    -13.986085    -0.783093    0.045640    2.265398    -0.114235    1.021279    27.799347    -1.377897    3.580401    -8.121711    -0.560258    18.346087    1.233564    7.284845    -27.443180    13.400946    -14.874944    6.186937    -10.256136    -12.231286    -35.046440    -10.387873    2.525026    -15.567518    0.009817    13.087643    22.811855    9.051478    8.345851    -3.000098    -10.288819    1.408235    11.604310    -8.949081    12.954002    -0.917550    7.075320    2.374171    -1.116705    -9.463683    -3.928701    2.068820    1.680949    0.641147    -1.248096    -2.100034    1.769713    -9.856196    4.879732    -1.078407    8.351290    -10.202948    1.418867    0.604371    -0.574268    -7.878654    -0.757559    -0.547993    1.366602    
2.292799    82.287422    -16.729202    3.953053    3.305451    -3.045249    -5.445887    -13.982589    -0.781970    0.047025    2.277023    -0.114689    1.063998    27.777624    -1.388659    3.528595    -8.118647    -0.577975    18.349464    1.236985    7.279624    -27.468388    13.442700    -14.864673    6.172794    -10.327945    -12.327420    -35.007702    -10.441000    2.479708    -15.577662    0.015021    13.060212    22.797983    9.030758    8.361454    -3.009864    -10.329142    1.368617    11.587301    -8.993623    12.941975    -0.904817    7.068649    2.384504    -1.128814    -9.442296    -3.950752    2.072865    1.666855    0.639766    -1.244963    -2.096256    1.765229    -9.847459    4.881641    -1.080974    8.342341    -10.202142    1.431625    0.617524    -0.559452    -7.894218    -0.751180    -0.543386    1.355028    
2.309800    82.288666    -16.734215    3.937310    3.296827    -3.045841    -5.436691    -13.985899    -0.781428    0.050910    2.305561    -0.115269    1.073879    27.756197    -1.380365    3.510665    -8.135736    -0.571688    18.335760    1.242810    7.278974    -27.473688    13.456180    -14.859207    6.174034    -10.344466    -12.397491    -35.051525    -10.436376    2.420967    -15.586384    0.018864    13.042845    22.783682    8.998626    8.375572    -3.029991    -10.375655    1.346187    11.555683    -9.050249    12.882728    -0.893026    7.065630    2.406905    -1.156615    -9.421664    -3.924947    2.094408    1.656571    0.587559    -1.242570    -2.099758    1.761876    -9.837186    4.883428    -1.091031    8.325191    -10.193051    1.444135    0.638865    -0.561976    -7.916224    -0.767314    -0.556030    1.384319    
2.326706    82.289345    -16.739798    3.930379    3.285014    -3.049215    -5.199115    -13.947979    -0.713660    -0.367037    2.254179    -0.070566    1.223220    27.743145    -1.403485    3.574238    -8.116404    -0.566257    18.514462    1.262690    7.209839    -27.402643    13.521264    -14.820397    6.113780    -10.371973    -12.502820    -35.063583    -10.457962    2.398317    -15.424319    0.039758    12.973689    22.812119    8.976116    8.424939    -3.062220    -10.384874    1.290265    11.550772    -9.068580    12.809451    -0.885995    7.069738    2.420702    -1.178725    -9.415295    -3.948996    2.123093    1.650116    0.585334    -1.257978    -2.087274    1.783582    -9.835398    4.889552    -1.088907    8.309915    -10.192597    1.431762    0.668221    -0.557718    -7.897797    -0.765484    -0.557403    1.381038    
2.345488    82.289413    -16.744877    3.921988    3.282039    -3.051963    -5.192189    -13.953241    -0.715547    -0.367664    2.276591    -0.072434    1.254166    27.708475    -1.406477    3.535501    -8.120988    -0.574412    18.498394    1.285183    7.222530    -27.383726    13.525458    -14.848207    6.115530    -10.345470    -12.546721    -35.112179    -10.429144    2.395400    -15.438350    0.024380    12.969820    22.808599    8.947572    8.420230    -3.079714    -10.381454    1.278773    11.585981    -9.067712    12.746240    -0.882189    7.063615    2.439905    -1.203674    -9.398305    -3.926599    2.130153    1.641584    0.537911    -1.249698    -2.090186    1.771876    -9.835463    4.890718    -1.086281    8.296117    -10.197038    1.454912    0.676990    -0.553273    -7.924366    -0.763647    -0.544071    1.377523    
2.366415    82.289078    -16.749102    3.922188    3.272209    -3.065711    -5.191671    -13.953648    -0.712373    -0.373758    2.296529    -0.069100    1.262946    27.670347    -1.390840    3.538966    -8.114545    -0.557101    18.504667    1.290704    7.230802    -27.366066    13.586568    -14.877152    6.114223    -10.333588    -12.553672    -35.128159    -10.404048    2.352554    -15.439238    0.026067    12.976581    22.789427    8.912937    8.395266    -3.089463    -10.377496    1.304380    11.640697    -9.063190    12.684009    -0.894287    7.066801    2.469880    -1.210076    -9.389438    -3.930639    2.118205    1.629594    0.523660    -1.248022    -2.093827    1.769539    -9.844779    4.894554    -1.078422    8.285910    -10.195557    1.465135    0.699324    -0.556675    -7.945560    -0.764959    -0.566978    1.380235    
2.384592    82.287659    -16.754526    3.919355    3.269373    -3.085045    -5.248415    -14.028474    -0.704713    -0.260242    2.434620    -0.053013    1.205413    27.611917    -1.391138    3.573423    -8.133904    -0.556634    18.420153    1.232215    7.169674    -27.329006    13.635092    -14.861413    6.139576    -10.314834    -12.536811    -35.168903    -10.375348    2.323707    -15.497730    0.012313    12.960008    22.756575    8.894158    8.369855    -3.116971    -10.365134    1.261602    11.825577    -9.027094    12.722832    -0.894630    7.067189    2.483213    -1.227795    -9.393582    -3.894949    2.153533    1.629561    0.479290    -1.253780    -2.078702    1.777536    -9.847596    4.892655    -1.085559    8.269646    -10.211406    1.451276    0.744969    -0.549812    -7.914481    -0.769170    -0.541821    1.387452    
2.406564    82.286720    -16.757862    3.920825    3.259705    -3.110334    -5.058903    -14.121412    -0.589991    -0.603114    2.589050    0.051571    1.424413    27.579046    -1.486631    3.600880    -8.191630    -0.624625    18.579090    1.151000    6.939292    -27.261459    13.693090    -14.794834    6.110519    -10.340302    -12.536880    -35.184708    -10.390395    2.279100    -15.351934    0.004819    12.819205    22.746605    8.882791    8.374303    -3.109184    -10.363235    1.223550    11.865710    -9.021297    12.727924    -0.906028    7.073254    2.503273    -1.241932    -9.389236    -3.847956    2.135631    1.620192    0.428633    -1.259208    -2.086678    1.785319    -9.860212    4.895044    -1.078467    8.262355    -10.208257    1.470403    0.761160    -0.551565    -7.930428    -0.777073    -0.558376    1.401961    
2.426916    82.284561    -16.762997    3.912816    3.258604    -3.142664    -5.064015    -14.105037    -0.589891    -0.579978    2.557666    0.051906    1.443779    27.562174    -1.482355    3.585990    -8.183959    -0.621670    18.593533    1.157348    6.968433    -27.257322    13.784698    -14.829208    6.128085    -10.364214    -12.517610    -35.188137    -10.403202    2.246150    -15.368885    0.014408    12.828714    22.717171    8.937727    8.382278    -3.104446    -10.366125    1.205571    11.921824    -9.016781    12.744158    -0.904565    7.077468    2.484073    -1.266979    -9.389025    -3.762129    2.044040    1.617134    0.390220    -1.224556    -2.186691    1.737275    -9.861393    4.886215    -1.088866    8.251532    -10.211430    1.490370    0.780438    -0.548454    -7.904417    -0.766291    -0.522967    1.381975    
2.450398    82.283714    -16.764912    3.909313    3.247032    -3.181249    -5.056059    -14.106726    -0.578554    -0.576160    2.568096    0.060232    1.464497    27.542837    -1.492025    3.578492    -8.187606    -0.631242    18.591545    1.177247    6.989165    -27.246040    13.782605    -14.873112    6.134162    -10.381699    -12.489977    -35.155136    -10.402037    2.186036    -15.369465    0.008612    12.827492    22.664061    9.033299    8.399815    -3.094976    -10.366385    1.174473    11.990063    -9.010424    12.743666    -0.917562    7.090272    2.500278    -1.264809    -9.393501    -3.761432    2.196028    1.590804    0.389598    -1.268305    -2.055555    1.797868    -9.869135    4.887919    -1.105695    8.238344    -10.217194    1.517042    0.807944    -0.527405    -7.890308    -0.762734    -0.557647    1.376081    
2.471617    82.282005    -16.770416    3.895686    3.241668    -3.223162    -5.040173    -14.107991    -0.564731    -0.572978    2.569297    0.072671    1.507172    27.526739    -1.504158    3.546962    -8.185170    -0.646155    18.600695    1.175419    6.989946    -27.157410    14.061506    -14.973755    6.170878    -10.537834    -12.294105    -35.127037    -10.505139    1.996484    -15.378706    0.041589    12.813825    22.632759    9.059088    8.449995    -3.084231    -10.336875    1.116617    11.964353    -8.984015    12.755922    -0.911143    7.100214    2.460322    -1.264555    -9.412346    -3.615273    2.198930    1.578009    0.321304    -1.250664    -2.040637    1.772698    -9.868931    4.880247    -1.095639    8.238439    -10.219770    1.502056    0.849035    -0.530656    -7.867020    -0.772553    -0.523127    1.393270    
